<?xml version="1.0" encoding="UTF-8"?>
<svg version="1.1" xmlns="http://www.w3.org/2000/svg" width="379" height="311">
<path d="M0 0 C125.07 0 250.14 0 379 0 C379 102.63 379 205.26 379 311 C253.93 311 128.86 311 0 311 C0 208.37 0 105.74 0 0 Z " fill="#FCFCFC" transform="translate(0,0)"/>
<path d="M0 0 C0 0.66 0 1.32 0 2 C0.70125 2.0825 1.4025 2.165 2.125 2.25 C11.14420158 4.6028352 19.23754334 13.25446609 24 21 C24 21.66 24 22.32 24 23 C24.66 23 25.32 23 26 23 C27.01390853 25.20283698 28.01104385 27.41098556 29 29.625 C29.28617187 30.24246094 29.57234375 30.85992187 29.8671875 31.49609375 C31.63829919 35.50217971 32.32255965 38.63200469 32 43 C32.66 43 33.32 43 34 43 C36.36725869 51.13922012 36.33831648 59.20605197 36.31567383 67.6081543 C36.31253833 70.03285777 36.33594145 72.45630821 36.36132812 74.88085938 C36.41463271 88.12569924 35.04043209 100.62803032 30 113 C29.60919203 114.98956785 29.25149128 116.98806977 29 119 C28.34 119 27.68 119 27 119 C26.96261719 119.58007812 26.92523438 120.16015625 26.88671875 120.7578125 C26.45429259 125.8960527 25.48182655 129.41816637 23 134 C22.45301311 135.51162387 21.93374323 137.0334663 21.4375 138.5625 C21.18613281 139.33207031 20.93476563 140.10164062 20.67578125 140.89453125 C20.15654087 142.51228017 19.64015382 144.13094513 19.125 145.75 C17.61498046 148.77003908 15.43423067 150.68748086 13 153 C12.34 153.99 11.68 154.98 11 156 C10.34 156 9.68 156 9 156 C8.95875 156.598125 8.9175 157.19625 8.875 157.8125 C8 160 8 160 5.453125 161.62109375 C1.4794866 163.20785207 -1.9232687 163.37472672 -6.125 163.25 C-6.82753906 163.24484375 -7.53007812 163.2396875 -8.25390625 163.234375 C-15.6842441 163.12200694 -17.78659026 162.21340974 -23 157 C-24.64797236 156.28837557 -26.31165408 155.60968047 -28 155 C-28.33 154.34 -28.66 153.68 -29 153 C-29.99 152.67 -30.98 152.34 -32 152 C-32 151.34 -32 150.68 -32 150 C-32.66 150 -33.32 150 -34 150 C-34.43054688 149.27039063 -34.86109375 148.54078125 -35.3046875 147.7890625 C-37.22114104 144.63618733 -39.32149819 142.76316821 -42.125 140.375 C-50.72381464 132.70886102 -57.30660762 124.57426957 -62 114 C-63.35075235 110.94792596 -63.35075235 110.94792596 -65.75 108.75 C-68.60325274 107.79891575 -71.01262241 107.80084149 -74 108 C-75.49743119 109.49743119 -75.33202693 110.98824239 -75.5625 113.0625 C-75.706875 114.361875 -75.85125 115.66125 -76 117 C-75.34 117 -74.68 117 -74 117 C-71 122.75 -71 122.75 -71 125 C-70.34 125 -69.68 125 -69 125 C-66.58314288 129.22949995 -65.65166856 132.12335991 -66 137 C-69.1033501 137.9753386 -70.53731874 138.20312836 -73.5625 136.875 C-76 135 -76 135 -77.8046875 132.67578125 C-80.16375761 129.8004022 -82.66300847 127.63603811 -85.5625 125.3125 C-86.51253906 124.54550781 -87.46257812 123.77851563 -88.44140625 122.98828125 C-91.0251463 120.9308358 -91.0251463 120.9308358 -94 119 C-94 118.34 -94 117.68 -94 117 C-94.66 117 -95.32 117 -96 117 C-98 114 -98 114 -98 111 C-99.32338632 110.31379969 -100.65949948 109.65213539 -102 109 C-103.1446875 108.443125 -103.1446875 108.443125 -104.3125 107.875 C-107.63160934 106.79435975 -110.53195511 106.86399824 -114 107 C-112.81705962 112.59208181 -111.56665123 114.6787991 -107 118 C-101 124.24 -101 124.24 -101 127 C-100.443125 127.226875 -99.88625 127.45375 -99.3125 127.6875 C-95.06134783 130.1003161 -91.60909933 133.88036948 -89 138 C-89 138.99 -89 139.98 -89 141 C-91.31 140.67 -93.62 140.34 -96 140 C-96 139.34 -96 138.68 -96 138 C-96.556875 137.9175 -97.11375 137.835 -97.6875 137.75 C-100.69256318 136.77538491 -102.57254822 134.99175531 -105 133 C-105.99 132.67 -106.98 132.34 -108 132 C-108 131.34 -108 130.68 -108 130 C-108.54527344 129.76152344 -109.09054688 129.52304688 -109.65234375 129.27734375 C-112.59113683 127.67836648 -114.98704897 125.69644514 -117.5625 123.5625 C-118.51253906 122.78003906 -119.46257812 121.99757812 -120.44140625 121.19140625 C-124.55715959 117.66631064 -124.55715959 117.66631064 -126 116 C-126 115.34 -126 114.68 -126 114 C-132.435 113.505 -132.435 113.505 -139 113 C-139.94271002 116.25639659 -139.94271002 116.25639659 -140 120 C-137.666508 122.83411155 -137.666508 122.83411155 -135 125 C-135 125.66 -135 126.32 -135 127 C-134.113125 127.061875 -133.22625 127.12375 -132.3125 127.1875 C-128.91118257 128.02178541 -127.8224957 128.86852421 -125.54296875 131.40625 C-120.41875973 136.69910388 -114.14615352 140.99163901 -108 145 C-106.55272018 146.00692009 -105.11567119 147.02865572 -103.6875 148.0625 C-103.01074219 148.54847656 -102.33398438 149.03445312 -101.63671875 149.53515625 C-100 151 -100 151 -99 154 C-101.31 153.67 -103.62 153.34 -106 153 C-106 152.34 -106 151.68 -106 151 C-107.98 150.67 -109.96 150.34 -112 150 C-112 149.34 -112 148.68 -112 148 C-113.1446875 147.8453125 -113.1446875 147.8453125 -114.3125 147.6875 C-117.32546618 146.91674121 -117.8707539 146.1292461 -120 144 C-122.03232242 142.80400932 -122.03232242 142.80400932 -124.1875 141.8125 C-124.90292969 141.46832031 -125.61835938 141.12414062 -126.35546875 140.76953125 C-126.89816406 140.51558594 -127.44085938 140.26164063 -128 140 C-128 139.34 -128 138.68 -128 138 C-130.99480917 137.1276588 -133.63575911 136.89170234 -136.75 136.9375 C-137.54921875 136.94652344 -138.3484375 136.95554688 -139.171875 136.96484375 C-139.77515625 136.97644531 -140.3784375 136.98804688 -141 137 C-139.836189 142.50165198 -138.56494121 144.75648914 -134 148 C-134 148.66 -134 149.32 -134 150 C-133.27312988 150.10578369 -132.54625977 150.21156738 -131.79736328 150.32055664 C-128.75514766 151.05947147 -126.84137743 152.14402478 -124.2421875 153.87109375 C-123.36949219 154.44537109 -122.49679688 155.01964844 -121.59765625 155.61132812 C-120.69917969 156.21396484 -119.80070313 156.81660156 -118.875 157.4375 C-117.96878906 158.03626953 -117.06257812 158.63503906 -116.12890625 159.25195312 C-113.74752448 160.82719307 -111.37232943 162.41117448 -109 164 C-108.01 164.66 -107.02 165.32 -106 166 C-106 166.66 -106 167.32 -106 168 C-105.34 168.33 -104.68 168.66 -104 169 C-111.24853554 168.52726942 -116.80782109 165.33779353 -123.06640625 161.84765625 C-126.015593 160.55478044 -128.82923341 160.87804744 -132 161 C-132 163.31 -132 165.62 -132 168 C-131.41734375 168.268125 -130.8346875 168.53625 -130.234375 168.8125 C-127.97213399 170.01480991 -126.19423682 171.33825913 -124.25 173 C-123.63640625 173.515625 -123.0228125 174.03125 -122.390625 174.5625 C-121 176 -121 176 -121 178 C-119.68 178.33 -118.36 178.66 -117 179 C-117 179.66 -117 180.32 -117 181 C-116.17048828 181.14501953 -116.17048828 181.14501953 -115.32421875 181.29296875 C-112.42010691 182.17640445 -110.32852923 183.61699401 -107.8125 185.3125 C-103.63157776 188.04210077 -99.53707732 190.24819249 -94.93359375 192.16015625 C-92.48564247 193.22340781 -90.28555739 194.62866557 -88 196 C-85.80869466 196.69579454 -85.80869466 196.69579454 -84 197 C-84 197.66 -84 198.32 -84 199 C-83.29875 198.95875 -82.5975 198.9175 -81.875 198.875 C-78.59513338 199.0176029 -76.08578605 199.90711744 -73 201 C-71.33911955 201.36106097 -69.67381019 201.70462173 -68 202 C-68 202.66 -68 203.32 -68 204 C-67.30777344 203.96519531 -66.61554688 203.93039063 -65.90234375 203.89453125 C-57.19931263 203.65373592 -46.24381501 203.53101469 -38.71484375 208.51171875 C-35.86879263 211.50579144 -35.06925326 213.49791387 -34.5 217.625 C-35.19908234 222.34380582 -36.15439642 225.95556383 -40 229 C-40.66 229 -41.32 229 -42 229 C-42 229.66 -42 230.32 -42 231 C-47.47619048 236 -47.47619048 236 -50 236 C-50.33 236.99 -50.66 237.98 -51 239 C-51.66 239 -52.32 239 -53 239 C-53 239.66 -53 240.32 -53 241 C-56.46153846 244 -56.46153846 244 -59 244 C-59 244.66 -59 245.32 -59 246 C-60.99330842 247.34331654 -62.99384866 248.67594012 -65 250 C-65.66 250.99 -66.32 251.98 -67 253 C-68.175625 253.4640625 -68.175625 253.4640625 -69.375 253.9375 C-72.07721214 254.82323344 -72.07721214 254.82323344 -73.8125 256.88671875 C-76.2684699 259.2593611 -78.53781692 260.43322848 -81.625 261.875 C-85.53952604 263.75189232 -89.22652163 265.71273495 -92.875 268.0625 C-107.55071825 277.07182623 -124.64694216 279.08473742 -141.375 275.75 C-146.12726952 274.61265909 -150.45772244 273.18297896 -154.84375 271.0390625 C-157.26923865 269.87025819 -159.7379786 268.90536707 -162.25 267.9375 C-165.70853637 266.56378228 -168.97845956 265.21579633 -172 263 C-172 262.34 -172 261.68 -172 261 C-175.01970788 259.43370292 -178.08650414 258.12374836 -181.25 256.875 C-182.14203125 256.52179688 -183.0340625 256.16859375 -183.953125 255.8046875 C-184.62859375 255.53914063 -185.3040625 255.27359375 -186 255 C-186 254.34 -186 253.68 -186 253 C-186.53625 252.773125 -187.0725 252.54625 -187.625 252.3125 C-190 251 -190 251 -193.0625 248.4375 C-195.80205688 245.86462201 -195.80205688 245.86462201 -199 245 C-200.62004233 243.27870503 -202.03875786 241.45074522 -203.5 239.59375 C-205.01516837 237.73155509 -205.01516837 237.73155509 -208 237 C-209.6484375 235.29296875 -209.6484375 235.29296875 -211.375 233.1875 C-214.039335 230.03619621 -216.75796527 227.5595011 -220 225 C-221.68732277 223.01739574 -223.35366057 221.0167658 -225 219 C-225.825 218.175 -226.65 217.35 -227.5 216.5 C-230.19487389 213.80512611 -232.56104274 210.92674871 -235 208 C-235.845625 207.175 -236.69125 206.35 -237.5625 205.5 C-240 203 -240 203 -241.82421875 200.23046875 C-244.47906536 196.28871265 -247.5012105 192.79462518 -250.640625 189.23632812 C-254 185.32205636 -254 185.32205636 -254 182 C-254.66 182 -255.32 182 -256 182 C-256.495 179.525 -256.495 179.525 -257 177 C-257.99 176.67 -258.98 176.34 -260 176 C-260 174.68 -260 173.36 -260 172 C-260.7425 171.79375 -261.485 171.5875 -262.25 171.375 C-267.79274057 168.60362971 -269.90814565 162.54341403 -272 157 C-272 156.01 -272 155.02 -272 154 C-272.66 154 -273.32 154 -274 154 C-279.00374275 144.93684102 -283.94954609 135.88385167 -287.625 126.1875 C-287.9955249 125.23037109 -287.9955249 125.23037109 -288.37353516 124.25390625 C-289.77617988 120.38454149 -290.23876401 117.10297099 -290 113 C-290.66 113 -291.32 113 -292 113 C-295.40785392 99.71849789 -298.67283321 86.428247 -294 73 C-291.10693536 70.35491233 -289.54265823 70.01004923 -285.625 69.9375 C-279.68069862 71.67979523 -276.20776539 74.97407096 -273.0625 80.25 C-272 83 -272 83 -272 85 C-271.34 85 -270.68 85 -270 85 C-269.80664062 85.56589844 -269.61328125 86.13179688 -269.4140625 86.71484375 C-269.02347656 87.81505859 -269.02347656 87.81505859 -268.625 88.9375 C-268.36976563 89.66839844 -268.11453125 90.39929688 -267.8515625 91.15234375 C-267.14728587 93.18682116 -267.14728587 93.18682116 -265 94 C-264.3671875 96.72265625 -264.3671875 96.72265625 -263.875 100.0625 C-263.70742188 101.16722656 -263.53984375 102.27195312 -263.3671875 103.41015625 C-263.24601562 104.26480469 -263.12484375 105.11945313 -263 106 C-262.34 106 -261.68 106 -261 106 C-261 106.66 -261 107.32 -261 108 C-260.34 108 -259.68 108 -259 108 C-256 113.75 -256 113.75 -256 116 C-255.34 116 -254.68 116 -254 116 C-253.443125 117.155 -252.88625 118.31 -252.3125 119.5 C-248.87171023 126.3334566 -245.02393904 132.12866601 -239.88671875 137.80078125 C-237.76760766 140.27088382 -235.88940796 142.85044338 -234 145.5 C-228.51720034 153.82217544 -228.51720034 153.82217544 -221 160 C-220.67 160.99 -220.34 161.98 -220 163 C-217.80003317 165.31575456 -215.52463852 167.51154344 -213.1875 169.6875 C-212 171 -212 171 -212 173 C-209.03 172.67 -206.06 172.34 -203 172 C-203 169.36 -203 166.72 -203 164 C-203.66 164 -204.32 164 -205 164 C-206.98907984 161.76928379 -208.84798234 159.53606658 -210.6875 157.1875 C-211.21150391 156.54490234 -211.73550781 155.90230469 -212.27539062 155.24023438 C-212.76587891 154.61826172 -213.25636719 153.99628906 -213.76171875 153.35546875 C-214.21506592 152.78465576 -214.66841309 152.21384277 -215.13549805 151.62573242 C-215.42078369 151.08924072 -215.70606934 150.55274902 -216 150 C-215.67 149.01 -215.34 148.02 -215 147 C-211.49955083 148.43510823 -209.95830604 150.10919553 -207.8125 153.1875 C-204.63057192 157.4737849 -201.17461581 160.43679501 -196.8203125 163.4921875 C-195 165 -195 165 -194 168 C-193.34 168.33 -192.68 168.66 -192 169 C-191.34 169.33 -190.68 169.66 -190 170 C-189.67 170.99 -189.34 171.98 -189 173 C-186.50548587 175.49451413 -185.32610265 175.98118639 -181.75 176.1875 C-180.8425 176.125625 -179.935 176.06375 -179 176 C-178.65103802 171.11453227 -179.48299136 168.1950144 -182 164 C-182.98165594 162.98198643 -183.97591432 161.9753197 -185 161 C-185 160.34 -185 159.68 -185 159 C-185.59167969 158.73316406 -186.18335938 158.46632812 -186.79296875 158.19140625 C-193.39560434 154.62715164 -199.02728637 147.23076059 -203 141 C-203 140.01 -203 139.02 -203 138 C-199.18287622 139.63852556 -196.20111896 142.15192288 -193.0625 144.8125 C-192.55009766 145.23853516 -192.03769531 145.66457031 -191.50976562 146.10351562 C-182.42092831 153.73721507 -182.42092831 153.73721507 -181 158 C-179.6721556 158.67753336 -178.33742308 159.34157633 -177 160 C-175.10901104 161.62476846 -173.25764553 163.29624472 -171.4375 165 C-166.2140622 169.87615361 -163.20332455 172.1845293 -156 173 C-156 172.34 -156 171.68 -156 171 C-155.34 171 -154.68 171 -154 171 C-153.85232983 164.20717196 -157.18877134 160.97972283 -161.67578125 156.13671875 C-163.83397652 153.95286868 -163.83397652 153.95286868 -166.23046875 152.89453125 C-168 152 -168 152 -169 149 C-170.31091675 148.290268 -171.64814438 147.6282584 -173 147 C-174.83803279 145.50980997 -176.56747309 143.93296995 -178.31640625 142.33984375 C-180.07218444 140.78521084 -180.07218444 140.78521084 -183 140 C-184.7890625 138.328125 -184.7890625 138.328125 -186.625 136.25 C-187.23601562 135.57453125 -187.84703125 134.8990625 -188.4765625 134.203125 C-190.16084385 131.76739505 -190.62322203 129.91239188 -191 127 C-185.90042248 127.48567405 -183.16719459 129.10765454 -179 132 C-176.65598966 133.55733109 -174.29696657 135.09121892 -171.9375 136.625 C-171.33873047 137.01945313 -170.73996094 137.41390625 -170.12304688 137.8203125 C-164.57364842 141.4186081 -160.65518256 143.30954337 -154 143 C-155.00828596 137.58463634 -156.30196001 135.16894664 -160.74804688 131.92773438 C-161.34681641 131.51845703 -161.94558594 131.10917969 -162.5625 130.6875 C-168.91545643 126.16908714 -168.91545643 126.16908714 -170 124 C-171.32508079 123.19973239 -172.68605766 122.45828937 -174.0625 121.75 C-178.65705283 119.26864695 -183.15798912 116.56982482 -187 113 C-187 112.34 -187 111.68 -187 111 C-187.61875 110.71125 -188.2375 110.4225 -188.875 110.125 C-191 109 -191 109 -193 107 C-192.46428571 103.46428571 -192.46428571 103.46428571 -191 102 C-184.22303885 101.463211 -180.15080819 103.6102559 -174.28125 106.6875 C-170.60386263 108.15845495 -167.92592953 108.31096472 -164 108 C-162.50256881 106.50256881 -162.66797307 105.01175761 -162.4375 102.9375 C-162.293125 101.638125 -162.14875 100.33875 -162 99 C-162.763125 98.71125 -163.52625 98.4225 -164.3125 98.125 C-167 97 -167 97 -170 95 C-172.06893281 94.30942378 -174.15490762 93.66910233 -176.25 93.0625 C-181.00910893 91.64274348 -185.50049547 90.0927928 -190 88 C-190 87.34 -190 86.68 -190 86 C-190.72703125 85.72800781 -191.4540625 85.45601563 -192.203125 85.17578125 C-194.90791598 84.0387113 -197.25862476 82.73036147 -199.75 81.1875 C-203.05625471 79.15743004 -206.38139115 77.24756744 -209.8125 75.4375 C-213.49772019 73.42325839 -216.10131091 71.05972738 -219 68 C-220.65261839 66.97695052 -222.31791365 65.97383946 -224 65 C-225.8125 63.4375 -225.8125 63.4375 -227 62 C-227 61.34 -227 60.68 -227 60 C-227.66 60 -228.32 60 -229 60 C-233.68754055 55.65131781 -236.9830481 51.05085569 -239 45 C-239 44.01 -239 43.02 -239 42 C-239.66 42 -240.32 42 -241 42 C-243.15305957 38.14243493 -244.39253254 35.44870215 -244 31 C-244.66 31 -245.32 31 -246 31 C-248.44560855 22.16346249 -248.52034839 10.10545229 -244 2 C-240.82439808 -1.92771817 -238.93376412 -3.36612567 -234 -4 C-230.72789494 -4.13794897 -227.46207855 -4.1394573 -224.1875 -4.125 C-223.32318359 -4.12886719 -222.45886719 -4.13273437 -221.56835938 -4.13671875 C-216.28878077 -4.12874957 -211.22430593 -3.76453257 -206 -3 C-206 -2.34 -206 -1.68 -206 -1 C-205.175 -0.9175 -204.35 -0.835 -203.5 -0.75 C-199.23246079 0.16447269 -195.80763106 1.92223178 -192 4 C-192 4.66 -192 5.32 -192 6 C-191.30132812 6.07476562 -190.60265625 6.14953125 -189.8828125 6.2265625 C-186.17247569 7.22201872 -183.90507577 9.02839997 -180.875 11.375 C-179.32425781 12.56222656 -179.32425781 12.56222656 -177.7421875 13.7734375 C-173.53562259 17.18902439 -173.53562259 17.18902439 -172 19 C-172 19.66 -172 20.32 -172 21 C-171.42765625 21.08378906 -170.8553125 21.16757812 -170.265625 21.25390625 C-167.32969027 22.22073993 -165.90031688 23.73541623 -163.75 25.9375 C-163.04359375 26.64777344 -162.3371875 27.35804687 -161.609375 28.08984375 C-160 30 -160 30 -160 32 C-159.360625 32.268125 -158.72125 32.53625 -158.0625 32.8125 C-156 34 -156 34 -155 37 C-153.67288808 37.35729936 -152.33737094 37.68325425 -151 38 C-144.37681159 41.24637681 -144.37681159 41.24637681 -143 44 C-142.01 44.33 -141.02 44.66 -140 45 C-140 45.66 -140 46.32 -140 47 C-133.73 47 -127.46 47 -121 47 C-121 46.34 -121 45.68 -121 45 C-120.33613281 44.68546875 -119.67226562 44.3709375 -118.98828125 44.046875 C-112.75752963 41.02700706 -107.71588503 38.18423528 -103.3125 32.75 C-102.1678125 31.38875 -102.1678125 31.38875 -101 30 C-100.34 30 -99.68 30 -99 30 C-99 29.34 -99 28.68 -99 28 C-97.35546875 26.30859375 -97.35546875 26.30859375 -95.1875 24.4375 C-94.12595703 23.50744141 -94.12595703 23.50744141 -93.04296875 22.55859375 C-91 21 -91 21 -88 20 C-88 19.34 -88 18.68 -88 18 C-87.34 18 -86.68 18 -86 18 C-86 17.34 -86 16.68 -86 16 C-85.401875 15.731875 -84.80375 15.46375 -84.1875 15.1875 C-80.68911463 13.28837651 -79.26654546 11.79963639 -78 8 C-76.02 7.67 -74.04 7.34 -72 7 C-72 6.34 -72 5.68 -72 5 C-48.16829533 -8.89784781 -25.3724124 -10.5718385 0 0 Z " fill="#030303" transform="translate(324,25)"/>
<path d="M0 0 C3.92286385 1.6582154 6.93094298 4.31530011 10.125 7.0625 C13.83107268 10.36410547 13.83107268 10.36410547 18 13 C17.67 13.66 17.34 14.32 17 15 C16.34 14.67 15.68 14.34 15 14 C15 15.65 15 17.3 15 19 C9.16009705 14.3767435 4.13190031 9.23541319 0 3 C0 2.01 0 1.02 0 0 Z " fill="#303030" transform="translate(121,163)"/>
<path d="M0 0 C6.28319452 3.30634648 12.4422558 6.55380464 18 11 C18 11.66 18 12.32 18 13 C18.66 13.33 19.32 13.66 20 14 C12.00137666 13.47835065 5.25074952 9.91438238 -1 5 C-0.01 4.67 0.98 4.34 2 4 C2 3.34 2 2.68 2 2 C1.34 2 0.68 2 0 2 C0 1.34 0 0.68 0 0 Z " fill="#2C2C2C" transform="translate(200,180)"/>
<path d="M0 0 C2.63709022 0.37591351 3.76955365 0.74870642 5.59765625 2.7421875 C6.08105469 3.44601563 6.56445312 4.14984375 7.0625 4.875 C9.15328096 7.88616852 9.15328096 7.88616852 11.671875 10.52734375 C13 12 13 12 13.1875 15.6875 C13.125625 16.780625 13.06375 17.87375 13 19 C12.34 19 11.68 19 11 19 C11 19.66 11 20.32 11 21 C4.6 21.49230769 4.6 21.49230769 1.5625 19 C1.046875 18.34 0.53125 17.68 0 17 C3.3 17.99 6.6 18.98 10 20 C10.10700815 13.36549494 8.97284306 10.4334296 4.4375 5.5 C3.61121094 4.6646875 2.78492188 3.829375 1.93359375 2.96875 C0 1 0 1 0 0 Z " fill="#8F8F8F" transform="translate(157,177)"/>
<path d="M0 0 C1.3293457 0.00483398 1.3293457 0.00483398 2.68554688 0.00976562 C3.59755859 0.01814453 4.50957031 0.02652344 5.44921875 0.03515625 C6.38056641 0.03966797 7.31191406 0.04417969 8.27148438 0.04882812 C10.55996248 0.06056391 12.84830683 0.07698262 15.13671875 0.09765625 C15.13671875 0.42765625 15.13671875 0.75765625 15.13671875 1.09765625 C13.82316406 1.13503906 12.50960937 1.17242188 11.15625 1.2109375 C9.42054511 1.27661282 7.68486928 1.34305962 5.94921875 1.41015625 C5.08490234 1.43271484 4.22058594 1.45527344 3.33007812 1.47851562 C-2.8763062 1.74008738 -6.54140228 2.70748673 -10.98828125 7.28515625 C-12.86328125 9.09765625 -12.86328125 9.09765625 -15.86328125 9.09765625 C-14.41543602 5.71935072 -12.69995849 3.44804597 -9.86328125 1.09765625 C-6.53530765 0.23144271 -3.42896404 -0.02212235 0 0 Z " fill="#595959" transform="translate(94.86328125,20.90234375)"/>
<path d="M0 0 C0.71875 1.74609375 0.71875 1.74609375 1 4 C-2.78066416 9.47146118 -7.7747792 12.9249264 -14 15 C-14 13 -14 13 -12.35546875 11.30859375 C-11.64003906 10.69113281 -10.92460937 10.07367188 -10.1875 9.4375 C-9.47980469 8.81746094 -8.77210938 8.19742187 -8.04296875 7.55859375 C-6 6 -6 6 -3 5 C-3 4.34 -3 3.68 -3 3 C-2.34 3 -1.68 3 -1 3 C-0.67 2.01 -0.34 1.02 0 0 Z " fill="#B4B4B4" transform="translate(285,251)"/>
<path d="M0 0 C0.98613281 0.2165625 0.98613281 0.2165625 1.9921875 0.4375 C11.36627462 2.26659017 20.49767264 2.19004655 30 2 C29.67 2.66 29.34 3.32 29 4 C25.47932649 4.08782542 21.95893856 4.14066643 18.4375 4.1875 C16.9515332 4.22520508 16.9515332 4.22520508 15.43554688 4.26367188 C9.46904038 4.32313872 5.28475584 3.82397192 0 1 C0 0.67 0 0.34 0 0 Z " fill="#9C9C9C" transform="translate(178,299)"/>
<path d="M0 0 C3.06383902 0.08719463 6.12484051 0.19410397 9.1875 0.3125 C10.48397461 0.34633789 10.48397461 0.34633789 11.80664062 0.38085938 C16.66508569 0.58562143 20.01080089 0.91931415 24 4 C21.40656154 5.29671923 20.41917285 4.78511203 17.625 4.125 C11.78190832 2.86070531 5.95710503 2.38895188 0 2 C0 1.34 0 0.68 0 0 Z " fill="#888888" transform="translate(256,227)"/>
<path d="M0 0 C0.66 0 1.32 0 2 0 C1.875 1.8125 1.875 1.8125 1 4 C-3.67406061 6.97505392 -7.71988494 7.41044868 -13.125 7.25 C-13.82753906 7.24484375 -14.53007812 7.2396875 -15.25390625 7.234375 C-18.62853006 7.18334099 -21.7734506 7.0365081 -25 6 C-24.67 5.34 -24.34 4.68 -24 4 C-23.47921875 4.15339844 -22.9584375 4.30679688 -22.421875 4.46484375 C-19.36721485 5.13982511 -16.36984029 5.34411118 -13.25 5.5625 C-12.07953125 5.64628906 -10.9090625 5.73007813 -9.703125 5.81640625 C-8.81109375 5.87699219 -7.9190625 5.93757812 -7 6 C-7 5.34 -7 4.68 -7 4 C-3.535 3.505 -3.535 3.505 0 3 C0 2.01 0 1.02 0 0 Z " fill="#666666" transform="translate(331,181)"/>
<path d="M0 0 C6.875 3.625 6.875 3.625 8 7 C5.69 6.67 3.38 6.34 1 6 C1 5.34 1 4.68 1 4 C-1.97 3.505 -1.97 3.505 -5 3 C-5 2.34 -5 1.68 -5 1 C-2.525 1.495 -2.525 1.495 0 2 C0 1.34 0 0.68 0 0 Z " fill="#3F3F3F" transform="translate(217,172)"/>
<path d="M0 0 C2.31 0.66 4.62 1.32 7 2 C7 1.34 7 0.68 7 0 C9 1 11 2 13 3 C13 3.66 13 4.32 13 5 C13.66 5.33 14.32 5.66 15 6 C9.22621075 5.5188509 5.04140164 3.81532819 0 1 C0 0.67 0 0.34 0 0 Z " fill="#424242" transform="translate(205,188)"/>
<path d="M0 0 C6.875 0.875 6.875 0.875 8 2 C10.53049402 2.07313567 13.03304837 2.09247527 15.5625 2.0625 C16.62887695 2.05573242 16.62887695 2.05573242 17.71679688 2.04882812 C19.47790013 2.03700864 21.23896036 2.01907263 23 2 C23 2.66 23 3.32 23 4 C16.73 4 10.46 4 4 4 C4 3.34 4 2.68 4 2 C2.68 1.67 1.36 1.34 0 1 C0 0.67 0 0.34 0 0 Z " fill="#868686" transform="translate(180,68)"/>
<path d="M0 0 C4.87685861 1.35468295 6.48592381 3.71675909 9 8 C5 8 5 8 2.25 5.6875 C0 3 0 3 0 0 Z " fill="#323232" transform="translate(108,172)"/>
<path d="M0 0 C5.57142857 5.14285714 5.57142857 5.14285714 6 9 C3.69 8.67 1.38 8.34 -1 8 C-0.01 7.34 0.98 6.68 2 6 C1.34 4.02 0.68 2.04 0 0 Z " fill="#404040" transform="translate(229,157)"/>
<path d="M0 0 C2.97 0.495 2.97 0.495 6 1 C6.33 2.32 6.66 3.64 7 5 C4.69 4.34 2.38 3.68 0 3 C0 2.01 0 1.02 0 0 Z " fill="#171717" transform="translate(205,185)"/>
<path d="M0 0 C1.7074998 1.28062485 3.37373596 2.61767557 5 4 C5 4.66 5 5.32 5 6 C5.66 6 6.32 6 7 6 C7 8.64 7 11.28 7 14 C6.34 13.67 5.68 13.34 5 13 C4.855625 12.2575 4.71125 11.515 4.5625 10.75 C3.92750986 7.64560375 2.68132876 5.66210387 1 3 C0.67 2.01 0.34 1.02 0 0 Z " fill="#888888" transform="translate(114,183)"/>
<path d="M0 0 C2.64 0 5.28 0 8 0 C8 0.66 8 1.32 8 2 C10.97 2.495 10.97 2.495 14 3 C10.45332822 4.25127906 8.27746562 3.72285053 4.75 2.5625 C3.85796875 2.27503906 2.9659375 1.98757812 2.046875 1.69140625 C1.37140625 1.46324219 0.6959375 1.23507813 0 1 C0 0.67 0 0.34 0 0 Z " fill="#5D5D5D" transform="translate(110,22)"/>
<path d="M0 0 C1.32 0.33 2.64 0.66 4 1 C4 1.66 4 2.32 4 3 C4.928125 3.4640625 4.928125 3.4640625 5.875 3.9375 C7.25 4.625 8.625 5.3125 10 6 C9.67 6.66 9.34 7.32 9 8 C8.01 7.67 7.02 7.34 6 7 C5.67 6.34 5.34 5.68 5 5 C4.01 4.67 3.02 4.34 2 4 C2 3.34 2 2.68 2 2 C1.34 2 0.68 2 0 2 C0 1.34 0 0.68 0 0 Z " fill="#575757" transform="translate(290,173)"/>
<path d="M0 0 C2.64 0.33 5.28 0.66 8 1 C8 1.66 8 2.32 8 3 C5.03 2.505 5.03 2.505 2 2 C2.33 3.32 2.66 4.64 3 6 C2.01 5.34 1.02 4.68 0 4 C0 2.68 0 1.36 0 0 Z " fill="#8F8F8F" transform="translate(131,150)"/>
<path d="M0 0 C0.66 0.33 1.32 0.66 2 1 C1.07213211 2.00894372 0.13231567 3.00690907 -0.8125 4 C-1.59560547 4.8353125 -1.59560547 4.8353125 -2.39453125 5.6875 C-4 7 -4 7 -7 7 C-5.55609075 3.19333016 -3.65047197 1.73397418 0 0 Z " fill="#323232" transform="translate(86,23)"/>
<path d="M0 0 C0.66 0.33 1.32 0.66 2 1 C-0.54782974 3.97246802 -3.45340883 5.41535288 -7 7 C-7.66 7 -8.32 7 -9 7 C-9 6.01 -9 5.02 -9 4 C-8.43410156 3.79503906 -7.86820313 3.59007813 -7.28515625 3.37890625 C-6.55167969 3.10949219 -5.81820312 2.84007813 -5.0625 2.5625 C-4.33160156 2.29566406 -3.60070312 2.02882813 -2.84765625 1.75390625 C-1.01694322 1.14613052 -1.01694322 1.14613052 0 0 Z " fill="#979797" transform="translate(213,63)"/>
<path d="M0 0 C0.66 1.32 1.32 2.64 2 4 C1.34 4 0.68 4 0 4 C0.66 5.98 1.32 7.96 2 10 C0 8.8125 0 8.8125 -2 7 C-2.375 4.4375 -2.375 4.4375 -2 2 C-1.34 1.34 -0.68 0.68 0 0 Z " fill="#B1B1B1" transform="translate(109,169)"/>
<path d="M0 0 C0.99928333 2.698065 1.03624754 3.88010429 0.1875 6.6875 C-1 9 -1 9 -3 10 C-2.39009109 6.44219804 -1.4216319 3.3171411 0 0 Z " fill="#959595" transform="translate(349,153)"/>
<path d="M0 0 C2.97 0.495 2.97 0.495 6 1 C5.01 1.33 4.02 1.66 3 2 C2.26676204 4.01508358 2.26676204 4.01508358 2 6 C1.34 4.02 0.68 2.04 0 0 Z " fill="#222222" transform="translate(133,152)"/>
<path d="M0 0 C1.9375 0.5625 1.9375 0.5625 4 2 C4.75 5.625 4.75 5.625 5 9 C4.34 8.67 3.68 8.34 3 8 C3 7.01 3 6.02 3 5 C2.34 5 1.68 5 1 5 C0.67 3.35 0.34 1.7 0 0 Z " fill="#777777" transform="translate(55,117)"/>
</svg>
