<?xml version="1.0" encoding="UTF-8"?>
<svg version="1.1" xmlns="http://www.w3.org/2000/svg" width="512" height="512">
<path d="M0 0 C12.02109665 10.13580044 21.13800238 25.19870174 23.140625 40.93359375 C23.02847656 42.05894531 23.02847656 42.05894531 22.9140625 43.20703125 C22.73183637 46.01715001 22.81075791 47.42212177 24.140625 49.93359375 C28.51018422 52.79697915 33.16505599 54.80747184 37.93310547 56.91552734 C48.67109886 61.86768753 57.92387183 68.74613244 66.67236328 76.61669922 C68.05236061 77.85442878 69.45328407 79.06871332 70.85546875 80.28125 C94.19999022 100.67623254 109.53132056 127.65753089 118.390625 157.12109375 C118.62491211 157.87237549 118.85919922 158.62365723 119.10058594 159.39770508 C123.64662441 175.36917093 124.57840892 192.20881122 124.52075005 208.72054863 C124.51136 211.66726672 124.52217189 214.61338469 124.53736877 217.56007385 C124.57670189 225.92082147 124.57869866 234.28150886 124.57641602 242.64233398 C124.58398781 290.74383683 125.67167977 347.91628981 158.140625 386.93359375 C159.24664062 388.00867188 159.24664062 388.00867188 160.375 389.10546875 C162.140625 390.93359375 162.140625 390.93359375 162.140625 392.93359375 C162.71425781 393.19527344 163.28789062 393.45695312 163.87890625 393.7265625 C166.29308147 395.01495653 168.21518729 396.51032889 170.328125 398.24609375 C173.42042518 400.71074884 176.44570001 402.7354273 179.953125 404.55859375 C184.69397352 407.07380832 187.41588105 409.75936189 189.140625 414.93359375 C189.53742949 420.1912532 189.03560646 423.49462217 186.140625 427.93359375 C181.99327746 432.3550476 178.33666957 433.79243841 172.35457134 434.05664158 C171.33414651 434.05571979 170.31372168 434.05479799 169.26237488 434.05384827 C168.08593414 434.05522293 166.90949341 434.0565976 165.69740295 434.05801392 C164.41562668 434.05441864 163.1338504 434.05082336 161.81323242 434.04711914 C160.44305422 434.04683692 159.07287587 434.04699569 157.70269775 434.04756165 C153.99028902 434.04784824 150.27791268 434.04197371 146.56551147 434.03498769 C142.68310571 434.02873128 138.8006992 434.02814854 134.91828918 434.02696228 C127.56963533 434.02385571 120.22099638 434.01565141 112.87234908 434.00561279 C104.50480068 433.99443072 96.13725156 433.98893592 87.76969755 433.98391736 C70.55999808 433.97346824 53.35031312 433.95588184 36.140625 433.93359375 C35.92805054 435.80096191 35.92805054 435.80096191 35.71118164 437.70605469 C33.68367491 455.51676187 20.70007848 471.76096546 7.578125 483.05859375 C-11.55764489 497.69182955 -33.22253807 500.9766182 -56.7265625 498.53125 C-76.48920248 494.76107055 -94.78969973 481.1841678 -105.984375 464.87109375 C-112.36335839 455.24202802 -116.53662129 445.4557686 -117.859375 433.93359375 C-118.92424936 433.93635913 -118.92424936 433.93635913 -120.01063633 433.93918037 C-137.29599377 433.98337688 -154.58133682 434.01645883 -171.86673832 434.03721809 C-180.22587681 434.04752432 -188.58497754 434.06157216 -196.9440918 434.08447266 C-204.23111972 434.10442654 -211.51812029 434.11731494 -218.80517477 434.12177074 C-222.66249473 434.12437473 -226.51973647 434.13048164 -230.37703133 434.14505386 C-234.01065677 434.15866936 -237.64417206 434.1628084 -241.27782059 434.15980911 C-243.24099892 434.16061818 -245.20416536 434.17135902 -247.16731262 434.18243408 C-261.17860737 434.14976619 -261.17860737 434.14976619 -265.8203125 430.3125 C-266.28695313 429.71308594 -266.75359375 429.11367188 -267.234375 428.49609375 C-267.71648437 427.89925781 -268.19859375 427.30242187 -268.6953125 426.6875 C-271.21993244 422.88362633 -271.1601562 419.37011647 -270.859375 414.93359375 C-267.9948647 407.24464506 -262.10477447 404.46933493 -255.3671875 400.52734375 C-252.99706167 399.02109556 -250.95702438 397.41927019 -248.859375 395.55859375 C-245.859375 392.93359375 -245.859375 392.93359375 -243.859375 392.93359375 C-243.47845703 392.0828125 -243.47845703 392.0828125 -243.08984375 391.21484375 C-241.70649655 388.65016195 -240.05659156 386.65526357 -238.171875 384.43359375 C-212.53622306 352.56224269 -206.59432331 304.93448238 -206.55441475 265.29447174 C-206.55066792 262.29602292 -206.53372231 259.29788134 -206.51365662 256.29949951 C-206.4590259 247.78826685 -206.42771954 239.27699202 -206.40307617 230.765625 C-206.38698763 225.51867264 -206.35656215 220.27194334 -206.31831169 215.02510834 C-206.30685674 213.0560624 -206.3007331 211.08697629 -206.30063057 209.11789703 C-206.29939461 191.70406226 -205.32843759 173.85691173 -200.109375 157.12109375 C-199.85188477 156.26475342 -199.59439453 155.40841309 -199.32910156 154.52612305 C-193.19404269 134.67924443 -184.06319981 116.04970496 -170.859375 99.93359375 C-170.41416504 99.38832031 -169.96895508 98.84304687 -169.51025391 98.28125 C-153.72536147 79.03164733 -132.97424475 59.85579825 -108.95703125 51.578125 C-105.58933148 50.24624011 -105.58933148 50.24624011 -104.87890625 47 C-104.81058594 45.84371094 -104.74226562 44.68742187 -104.671875 43.49609375 C-102.96441947 26.19032051 -94.883531 11.1909401 -81.51953125 -0.03125 C-56.81595147 -18.32871509 -24.66045876 -17.82156104 0 0 Z M-65.90234375 26.9609375 C-71.17651195 32.64918533 -71.17651195 32.64918533 -72.859375 39.93359375 C-70.96832031 39.71703125 -70.96832031 39.71703125 -69.0390625 39.49609375 C-48.73414807 37.29142568 -29.13757474 37.61134593 -8.859375 39.93359375 C-9.89076192 32.50499682 -15.06388186 27.10193417 -20.796875 22.55859375 C-35.40557877 12.45563961 -53.36575925 14.5202351 -65.90234375 26.9609375 Z M-100.859375 80.93359375 C-102.47779297 81.73603516 -102.47779297 81.73603516 -104.12890625 82.5546875 C-116.06299223 88.68453237 -126.12737527 96.76528736 -135.859375 105.93359375 C-136.52324219 106.53300781 -137.18710938 107.13242188 -137.87109375 107.75 C-160.16344951 128.68582295 -174.53195985 161.64554406 -175.96049976 192.08862591 C-176.0065792 194.40797716 -176.02545464 196.72585725 -176.03295898 199.0456543 C-176.039646 199.92017242 -176.04633301 200.79469055 -176.05322266 201.69570923 C-176.06720059 203.58405395 -176.07911726 205.47241484 -176.08917046 207.36078453 C-176.1057462 210.37069342 -176.12899583 213.38048564 -176.15406799 216.39033508 C-176.22434018 224.9451399 -176.28442626 233.49999518 -176.33618164 242.05493164 C-176.36840101 247.30328571 -176.40978489 252.55150804 -176.45637703 257.79975319 C-176.47215535 259.77799873 -176.48458466 261.75627449 -176.49328423 263.73456383 C-176.58710797 284.7875026 -179.00034617 304.9673823 -181.859375 325.93359375 C-88.799375 325.93359375 4.260625 325.93359375 100.140625 325.93359375 C99.150625 318.67359375 98.160625 311.41359375 97.140625 303.93359375 C95.65309323 290.54456431 94.84937722 277.48841214 94.83566475 264.04021645 C94.83190477 261.07203031 94.81493072 258.10415096 94.79490662 255.1360321 C94.74036608 246.71468861 94.70885695 238.29330539 94.68432617 229.87182617 C94.66829219 224.67330222 94.63793174 219.47500625 94.59956169 214.27660179 C94.58807282 212.3237878 94.58198278 210.37093289 94.58188057 208.4180851 C94.57916754 170.42644679 83.09287138 137.02109523 57.140625 108.93359375 C56.32980469 108.04027344 55.51898438 107.14695313 54.68359375 106.2265625 C31.86941721 82.20168339 -1.85640538 67.74283283 -34.8828125 66.73046875 C-58.1775106 66.39022616 -79.99155289 70.2771275 -100.859375 80.93359375 Z M-189.859375 354.93359375 C-192.499375 361.53359375 -195.139375 368.13359375 -197.859375 374.93359375 C-202.19808284 384.1533479 -206.57146026 392.45874635 -212.390625 400.7734375 C-213.95308652 402.63605559 -213.95308652 402.63605559 -213.859375 403.93359375 C-99.679375 403.93359375 14.500625 403.93359375 132.140625 403.93359375 C128.31088953 397.00399418 128.31088953 397.00399418 124.265625 390.24609375 C117.47354839 378.94338165 112.79760358 367.3522033 108.140625 354.93359375 C9.800625 354.93359375 -88.539375 354.93359375 -189.859375 354.93359375 Z M-86.859375 433.93359375 C-84.51252208 445.66785834 -76.43504436 454.77693515 -66.984375 461.80859375 C-56.66679123 468.54920318 -44.92224359 471.37742747 -32.671875 469.24609375 C-17.99359132 465.635901 -6.1238075 457.24289293 1.81640625 444.17578125 C4.40438945 439.30008011 4.40438945 439.30008011 5.140625 433.93359375 C-25.219375 433.93359375 -55.579375 433.93359375 -86.859375 433.93359375 Z " fill="#000000" transform="translate(296.859375,13.06640625)"/>
<path d="M0 0 C5.78025794 -0.27356946 10.42230972 0.63247702 15.05859375 4.25390625 C18.02585428 7.56483254 19.28458856 10.8917176 19.49609375 15.31640625 C18.89280798 20.74597821 17.57872999 23.84778023 13.55859375 27.56640625 C9.73043876 30.15041087 6.43727675 30.43487106 1.90283203 30.79760742 C-17.82026791 32.44542425 -34.63199448 38.31075365 -49.94140625 51.25390625 C-50.91464844 52.02992188 -51.88789063 52.8059375 -52.890625 53.60546875 C-67.79293436 66.07517804 -76.56179569 87.07819006 -78.29296875 106.12109375 C-78.42859256 108.4970219 -78.55801429 110.87331659 -78.6796875 113.25 C-79.14599487 118.602095 -80.48444202 121.90354916 -84.50390625 125.62890625 C-89.27540816 128.80990752 -93.29711376 128.74432661 -98.94140625 128.25390625 C-103.66544477 126.30267295 -106.66611734 122.80448407 -108.94140625 118.25390625 C-110.9148941 91.6603486 -102.16934649 64.38920851 -85.62890625 43.50390625 C-84.09251385 41.73094132 -82.52864704 39.98149791 -80.94140625 38.25390625 C-80.49958008 37.76970215 -80.05775391 37.28549805 -79.60253906 36.78662109 C-58.31374023 13.71264463 -30.88515255 2.66604902 0 0 Z " fill="#000000" transform="translate(251.94140625,98.74609375)"/>
</svg>
